<?xml version="1.0" encoding="UTF-8"?>
<svg xmlns="http://www.w3.org/2000/svg" xmlns:xlink="http://www.w3.org/1999/xlink" width="30px" height="30px" viewBox="0 0 30 30" version="1.1">
<g id="surface1">
<path style=" stroke:none;fill-rule:nonzero;fill:rgb(0%,0%,0%);fill-opacity:1;" d="M 29.988281 14.96875 C 29.988281 16.023438 29.207031 16.851562 28.324219 16.851562 L 26.65625 16.851562 L 26.691406 26.238281 C 26.691406 26.398438 26.683594 26.554688 26.667969 26.714844 L 26.667969 27.65625 C 26.667969 28.953125 25.734375 30 24.582031 30 L 23.75 30 C 23.691406 30 23.636719 30 23.578125 29.992188 C 23.503906 30 23.433594 30 23.359375 30 L 20.417969 30 C 19.265625 30 18.332031 28.953125 18.332031 27.65625 L 18.332031 22.5 C 18.332031 21.460938 17.589844 20.625 16.667969 20.625 L 13.332031 20.625 C 12.410156 20.625 11.667969 21.460938 11.667969 22.5 L 11.667969 27.65625 C 11.667969 28.953125 10.734375 30 9.582031 30 L 6.671875 30 C 6.59375 30 6.515625 29.992188 6.4375 29.988281 C 6.375 29.996094 6.3125 30 6.25 30 L 5.417969 30 C 4.265625 30 3.332031 28.953125 3.332031 27.65625 L 3.332031 21.09375 C 3.332031 21.039062 3.332031 20.984375 3.339844 20.929688 L 3.339844 16.851562 L 1.667969 16.851562 C 0.730469 16.851562 0 16.03125 0 14.972656 C 0 14.445312 0.15625 13.976562 0.519531 13.566406 L 13.875 0.46875 C 14.238281 0.0585938 14.65625 0 15.019531 0 C 15.386719 0 15.800781 0.117188 16.113281 0.410156 L 29.417969 13.5625 C 29.832031 13.976562 30.042969 14.445312 29.988281 14.96875 Z M 29.988281 14.96875 "/>
</g>
</svg>
