<?xml version="1.0" encoding="UTF-8"?>
<svg xmlns="http://www.w3.org/2000/svg" xmlns:xlink="http://www.w3.org/1999/xlink" width="30px" height="30px" viewBox="0 0 30 30" version="1.1">
<g id="surface1">
<path style=" stroke:none;fill-rule:nonzero;fill:rgb(0%,0%,0%);fill-opacity:1;" d="M 2.34375 2.8125 C 1.5625 2.8125 0.9375 3.4375 0.9375 4.21875 L 0.9375 7.03125 C 0.9375 7.8125 1.5625 8.4375 2.34375 8.4375 L 5.15625 8.4375 C 5.9375 8.4375 6.5625 7.8125 6.5625 7.03125 L 6.5625 4.21875 C 6.5625 3.4375 5.9375 2.8125 5.15625 2.8125 Z M 11.25 3.75 C 10.210938 3.75 9.375 4.585938 9.375 5.625 C 9.375 6.664062 10.210938 7.5 11.25 7.5 L 28.125 7.5 C 29.164062 7.5 30 6.664062 30 5.625 C 30 4.585938 29.164062 3.75 28.125 3.75 Z M 11.25 13.125 C 10.210938 13.125 9.375 13.960938 9.375 15 C 9.375 16.039062 10.210938 16.875 11.25 16.875 L 28.125 16.875 C 29.164062 16.875 30 16.039062 30 15 C 30 13.960938 29.164062 13.125 28.125 13.125 Z M 11.25 22.5 C 10.210938 22.5 9.375 23.335938 9.375 24.375 C 9.375 25.414062 10.210938 26.25 11.25 26.25 L 28.125 26.25 C 29.164062 26.25 30 25.414062 30 24.375 C 30 23.335938 29.164062 22.5 28.125 22.5 Z M 0.9375 13.59375 L 0.9375 16.40625 C 0.9375 17.1875 1.5625 17.8125 2.34375 17.8125 L 5.15625 17.8125 C 5.9375 17.8125 6.5625 17.1875 6.5625 16.40625 L 6.5625 13.59375 C 6.5625 12.8125 5.9375 12.1875 5.15625 12.1875 L 2.34375 12.1875 C 1.5625 12.1875 0.9375 12.8125 0.9375 13.59375 Z M 2.34375 21.5625 C 1.5625 21.5625 0.9375 22.1875 0.9375 22.96875 L 0.9375 25.78125 C 0.9375 26.5625 1.5625 27.1875 2.34375 27.1875 L 5.15625 27.1875 C 5.9375 27.1875 6.5625 26.5625 6.5625 25.78125 L 6.5625 22.96875 C 6.5625 22.1875 5.9375 21.5625 5.15625 21.5625 Z M 2.34375 21.5625 "/>
</g>
</svg>
