<?xml version="1.0" encoding="UTF-8"?>
<svg xmlns="http://www.w3.org/2000/svg" xmlns:xlink="http://www.w3.org/1999/xlink" width="30px" height="30px" viewBox="0 0 30 30" version="1.1">
<g id="surface1">
<path style=" stroke:none;fill-rule:nonzero;fill:rgb(0%,0%,0%);fill-opacity:1;" d="M 24.375 12.1875 C 24.375 14.875 23.5 17.359375 22.03125 19.375 L 29.449219 26.800781 C 30.179688 27.53125 30.179688 28.722656 29.449219 29.453125 C 28.71875 30.1875 27.527344 30.1875 26.796875 29.453125 L 19.375 22.03125 C 17.359375 23.507812 14.875 24.375 12.1875 24.375 C 5.453125 24.375 0 18.921875 0 12.1875 C 0 5.457031 5.453125 0 12.1875 0 C 18.921875 0 24.375 5.453125 24.375 12.1875 Z M 12.1875 20.625 C 16.847656 20.625 20.625 16.847656 20.625 12.1875 C 20.625 7.527344 16.847656 3.75 12.1875 3.75 C 7.527344 3.75 3.75 7.527344 3.75 12.1875 C 3.75 16.847656 7.527344 20.625 12.1875 20.625 Z M 12.1875 20.625 "/>
</g>
</svg>
