<?xml version="1.0" encoding="UTF-8"?>
<svg xmlns="http://www.w3.org/2000/svg" xmlns:xlink="http://www.w3.org/1999/xlink" width="30px" height="30px" viewBox="0 0 30 30" version="1.1">
<g id="surface1">
<path style=" stroke:none;fill-rule:nonzero;fill:rgb(0%,0%,0%);fill-opacity:1;" d="M 27.855469 0 C 26.785156 0 19.285156 1.875 19.285156 10.3125 L 19.285156 16.875 C 19.285156 18.945312 21.207031 20.625 23.570312 20.625 L 25.714844 20.625 L 25.714844 28.125 C 25.714844 29.164062 26.671875 30 27.855469 30 C 29.042969 30 30 29.164062 30 28.125 L 30 1.875 C 30 0.835938 29.042969 0 27.855469 0 Z M 4.285156 0.9375 C 4.285156 0.457031 3.878906 0.0585938 3.328125 0.0078125 C 2.777344 -0.046875 2.289062 0.269531 2.167969 0.734375 L 0.140625 8.71875 C 0.046875 9.085938 0 9.460938 0 9.835938 C 0 12.527344 2.351562 14.734375 5.355469 14.976562 L 5.355469 28.125 C 5.355469 29.164062 6.316406 30 7.5 30 C 8.683594 30 9.644531 29.164062 9.644531 28.125 L 9.644531 14.976562 C 12.648438 14.734375 15 12.527344 15 9.835938 C 15 9.460938 14.953125 9.085938 14.859375 8.71875 L 12.832031 0.734375 C 12.710938 0.265625 12.207031 -0.046875 11.664062 0.00390625 C 11.121094 0.0585938 10.714844 0.457031 10.714844 0.9375 L 10.714844 8.800781 C 10.714844 9.117188 10.417969 9.375 10.058594 9.375 C 9.714844 9.375 9.433594 9.148438 9.402344 8.847656 L 8.566406 0.855469 C 8.519531 0.367188 8.054688 0 7.5 0 C 6.945312 0 6.480469 0.367188 6.433594 0.855469 L 5.605469 8.847656 C 5.570312 9.148438 5.289062 9.375 4.949219 9.375 C 4.585938 9.375 4.292969 9.117188 4.292969 8.800781 L 4.292969 0.9375 Z M 7.519531 9.84375 L 7.480469 9.84375 L 7.5 9.804688 Z M 7.519531 9.84375 "/>
</g>
</svg>
